<svg xmlns="http://www.w3.org/2000/svg" xmlns:xlink="http://www.w3.org/1999/xlink" width="48" height="48" viewBox="0 0 48 48"><defs><linearGradient id="a" x1="0.5" y1="0.05" x2="0.5" y2="0.969" gradientUnits="objectBoundingBox"><stop offset="0" stop-color="#2483f2"/><stop offset="1" stop-color="#1671f5"/></linearGradient></defs><g transform="translate(-1559 -750)"><circle cx="24" cy="24" r="24" transform="translate(1559 750)" fill="url(#a)"/><path d="M6.892,27.5c-.248,0-.391-.021-.426-.061-.109-.126.051-.282.317-.539a4.825,4.825,0,0,0,1.288-1.848A13.076,13.076,0,0,1,0,13.073,12.783,12.783,0,0,1,3.954,3.829,13.637,13.637,0,0,1,13.5,0a13.637,13.637,0,0,1,9.546,3.829,12.77,12.77,0,0,1,1.012,17.393,13.621,13.621,0,0,1-7.387,4.562A47.379,47.379,0,0,1,6.892,27.5Zm5.608-8.7a4.493,4.493,0,0,0,4.48,3.148A4.168,4.168,0,0,0,21.3,18.5a19.068,19.068,0,0,1-4.13.545c-.283.01-.57.015-.852.015A20.949,20.949,0,0,1,12.5,18.792Z" transform="translate(1570 761)" fill="#fff"/></g></svg>