<svg xmlns="http://www.w3.org/2000/svg" width="30.937" height="25.135" viewBox="0 0 30.937 25.135">
  <g id="chatonline-icon" transform="translate(-8.701 -11.601)">
    <path id="路径_1" data-name="路径 1" d="M1.577.872l.652,2.459a8.545,8.545,0,0,0,9.626,13.634c3.7-1.554-1-2.4-1.721-6.348-.385-2.1,5.293-6.98,3.465-8.419A8.291,8.291,0,0,0,8.85.548.123.123,0,0,0,8.814.54L2.346.016A.6.6,0,0,0,2.211,0a.731.731,0,0,0-.634.872Z" transform="translate(39.637 36.12) rotate(180)" fill="#fff" opacity="0.4"/>
    <path id="排除_1" data-name="排除 1" d="M-605.8-142.865h-.011a1.043,1.043,0,0,1-.728-.421,1.045,1.045,0,0,1-.181-.822l.941-3.506a12.019,12.019,0,0,1-3.218-8.2,12.185,12.185,0,0,1,3.621-8.62A12.182,12.182,0,0,1-596.741-168h.16a12.182,12.182,0,0,1,8.639,3.562,12.183,12.183,0,0,1,3.62,8.62,12.194,12.194,0,0,1-3.491,8.49,12.2,12.2,0,0,1-8.409,3.683.176.176,0,0,1-.052.011l-9.338.747A.837.837,0,0,1-605.8-142.865Zm5.079-7.813.005,0,.007,0h0l0,0,0,0,0,0,0,0,.005,0,.006,0,.006,0,.005,0,0,0,0,0,.005,0,0,0,0,0,0,0,.005,0,.006,0a7.189,7.189,0,0,0,3.358.839,7.162,7.162,0,0,0,6.339-3.808.993.993,0,0,0,.073-.762.994.994,0,0,0-.487-.59,1,1,0,0,0-.468-.117,1,1,0,0,0-.883.531,5.169,5.169,0,0,1-4.576,2.745,5.175,5.175,0,0,1-2.418-.6,5.122,5.122,0,0,1-2.29-2.443,1,1,0,0,0-.912-.591.992.992,0,0,0-.41.088.986.986,0,0,0-.472.442.993.993,0,0,0-.03.879c.019.042.039.085.059.127l.01.02v.005h0l0,.008a.073.073,0,0,1,.005.011l0,0,0,0,0,.005,0,.008,0,.005,0,0,0,.006,0,.005,0,0,0,.007,0,.005,0,.005,0,0,0,.006,0,.008,0,.005,0,.005,0,0,0,.006,0,0a.07.07,0,0,0,.007.013v.005h0l0,.005.01.02.012.022a.015.015,0,0,0,0,.006,7.084,7.084,0,0,0,2.081,2.454l.012.008.016.012.018.013,0,0,0,0,.013.01,0,0,.018.013,0,0,.006,0,.009.007.009.007,0,0,.014.01.005,0h0l0,0,.007.005.007,0,0,0,.006,0,.006,0,.007,0,0,0,.006,0,.017.012,0,0,0,0,0,0,0,0,0,0,.005,0,0,0h0l.009.006,0,0,.005,0,0,0h0l0,0,.005,0,.005,0,0,0,0,0h0l0,0,.005,0,.005,0,0,0,.006,0s.006,0,.007,0l0,0,0,0,0,0,.013.008.006,0,0,0,.007,0,.007,0,.005,0,0,0,.005,0,.01.006,0,0,.006,0,.014.009.006,0,0,0h0l0,0,.008.006,0,0,.006,0,0,0,0,0,0,0h0l0,0,0,0h0l.006,0,0,0,0,0,.005,0h0l0,0h0l0,0,.005,0,0,0,0,0,.005,0h0l0,0,.006,0,.005,0h0l0,0,0,0,.006,0,0,0,.006,0,0,0h0l0,0,.005,0,0,0,.008.005,0,0,0,0,.005,0,.006,0,0,0,.005,0,.005,0,0,0,.005,0,.005,0h0l0,0,0,0,.005,0,.009.006.006,0,.006,0h0l0,0,.008.005.005,0,.005,0,0,0,.005,0,.005,0,0,0,0,0h0l0,0,.005,0,.007,0,0,0,0,0h0l0,0,.005,0,.006,0,.005,0,.005,0,0,0,.009,0,.005,0,.005,0,0,0,.005,0,.006,0,0,0,0,0Z" transform="translate(617.701 179.601)" fill="#fff"/>
    <g id="组_1" data-name="组 1" transform="matrix(-0.469, 0.883, -0.883, -0.469, 30.13, 19.67)">
      <path id="路径_3" data-name="路径 3" d="M7.172,0A7.173,7.173,0,1,1,0,7.173,7.173,7.173,0,0,1,7.172,0Z" fill="none"/>
    </g>
  </g>
</svg>
