<svg xmlns="http://www.w3.org/2000/svg" xmlns:xlink="http://www.w3.org/1999/xlink" width="68" height="68" viewBox="0 0 68 68">
  <defs>
    <clipPath id="clip-Blogger">
      <rect width="68" height="68"/>
    </clipPath>
  </defs>
  <g id="Blogger" clip-path="url(#clip-Blogger)">
    <rect id="矩形_10" data-name="矩形 10" width="68" height="68" fill="none"/>
    <g id="Blogger-2" data-name="Blogger" transform="translate(-157.764 -165.649)">
      <g id="g4149" transform="translate(157.764 165.649)">
        <path id="path4195" d="M-67.806,932.254a10.712,10.712,0,0,1-3.383-1.52,12.361,12.361,0,0,1-2.58-2.491,12.97,12.97,0,0,1-1.519-3.337c-.277-1.037-.282-1.449-.287-26.332,0-24.757,0-25.3.272-26.366a10.252,10.252,0,0,1,7.776-7.479c1.1-.246,50.409-.289,51.6-.045A10.145,10.145,0,0,1-8.7,870.21c1.166,2.328,1.061-.234,1.115,27.408.034,17.588,0,24.971-.109,25.891a10.147,10.147,0,0,1-7.754,8.734c-1.091.279-1.471.283-26.241.275-23.95-.007-25.18-.02-26.113-.266Z" transform="translate(75.576 -864.521)" fill="#f06a35"/>
        <path id="path4163" d="M-10.8,940.563A12.585,12.585,0,0,0-3.1,936.627,12.814,12.814,0,0,0,.2,930.786c.276-.991.3-1.473.35-7.289a62.973,62.973,0,0,0-.108-6.965A2.7,2.7,0,0,0-.727,914.79a11.866,11.866,0,0,0-2.348-.254c-1.887-.084-2.1-.121-2.694-.47-.945-.554-1.205-1.152-1.208-2.775a12.11,12.11,0,0,0-3.847-8.582,14.332,14.332,0,0,0-6.158-3.808c-.554-.168-1.794-.225-5.948-.274-6.518-.077-7.965.057-10.183.94a13.4,13.4,0,0,0-8.1,9.467c-.2.827-.24,2.152-.288,9.765-.06,9.538.006,10.938.6,12.828a11.361,11.361,0,0,0,2.012,3.877,13.044,13.044,0,0,0,7.792,4.984c1.39.251,18.541.314,20.3.074Z" transform="translate(54.421 -885.696)" fill="#fff"/>
        <path id="path4168" d="M-10.624,932.7a2.387,2.387,0,0,1-1-3.83c.734-.741.936-.769,5.528-.769,4.123,0,4.261.009,4.867.315a2.068,2.068,0,0,1,1.255,2.058A2.216,2.216,0,0,1-1.124,932.5c-.428.271-.683.288-4.722.312a45.09,45.09,0,0,1-4.777-.115Z" transform="translate(36.22 -904.016)" fill="#f06a35"/>
        <path id="path4166" d="M-10.848,972.576a2.629,2.629,0,0,1-1.4-1.823,2.648,2.648,0,0,1,.77-2.106c.666-.6.958-.622,9.142-.629,8.419-.007,8.375-.01,9.174.735a2.319,2.319,0,0,1-.469,3.7l-1.4.227-7.278.085c-6.4.075-8.207-.042-8.54-.187Z" transform="translate(36.249 -928.811)" fill="#f06a35"/>
      </g>
    </g>
  </g>
</svg>
