<svg xmlns="http://www.w3.org/2000/svg" xmlns:xlink="http://www.w3.org/1999/xlink" width="68" height="68" viewBox="0 0 68 68">
  <defs>
    <clipPath id="clip-LINE_SOCIAL_Circle_RGB_68x68">
      <rect width="68" height="68"/>
    </clipPath>
  </defs>
  <g id="LINE_SOCIAL_Circle_RGB_68x68" clip-path="url(#clip-LINE_SOCIAL_Circle_RGB_68x68)">
    <g id="组_6" data-name="组 6">
      <rect id="矩形_2" data-name="矩形 2" width="68" height="68" rx="8" fill="#00b900"/>
      <path id="路径_12" data-name="路径 12" d="M435.079,285.5c0-11.078-11.106-20.092-24.758-20.092s-24.758,9.013-24.758,20.092c0,9.932,8.808,18.25,20.705,19.822.806.174,1.9.531,2.181,1.221a5.081,5.081,0,0,1,.08,2.238s-.29,1.747-.353,2.12c-.108.626-.5,2.448,2.144,1.334s14.258-8.4,19.453-14.374h0c3.588-3.935,5.306-7.928,5.306-12.362" transform="translate(-376.431 -254.491)" fill="#fff"/>
      <path id="路径_13" data-name="路径 13" d="M418.679,291.418h-1.737a.483.483,0,0,0-.482.482v10.788a.482.482,0,0,0,.482.481h1.737a.482.482,0,0,0,.482-.481V291.9a.482.482,0,0,0-.482-.482" transform="translate(-389.82 -265.762)" fill="#00b900"/>
      <path id="路径_14" data-name="路径 14" d="M433.99,291.418h-1.736a.482.482,0,0,0-.482.482v6.409l-4.944-6.676a.521.521,0,0,0-.037-.049l0,0-.029-.029-.009-.008c-.009-.007-.017-.015-.026-.021l-.012-.01-.025-.017-.015-.008-.026-.015-.015-.007a.234.234,0,0,0-.028-.011l-.016-.006-.028-.01-.017,0-.028-.006-.02,0-.025,0-.025,0h-1.754a.482.482,0,0,0-.482.482v10.788a.482.482,0,0,0,.482.481h1.737a.482.482,0,0,0,.482-.481V296.28l4.95,6.684a.486.486,0,0,0,.122.119l.005,0,.03.018.014.008.023.011.024.01.014.006.033.011h.007a.457.457,0,0,0,.124.016h1.736a.482.482,0,0,0,.482-.481V291.9a.482.482,0,0,0-.482-.482" transform="translate(-393.177 -265.762)" fill="#00b900"/>
      <path id="路径_15" data-name="路径 15" d="M407.315,300.467H402.6V291.9a.482.482,0,0,0-.482-.482h-1.737a.482.482,0,0,0-.482.482v10.788a.478.478,0,0,0,.135.333l.006.008a.024.024,0,0,1,.007.006.481.481,0,0,0,.333.135h6.938a.482.482,0,0,0,.482-.483V300.95a.482.482,0,0,0-.482-.483" transform="translate(-382.642 -265.762)" fill="#00b900"/>
      <path id="路径_16" data-name="路径 16" d="M452.72,294.119a.482.482,0,0,0,.482-.482V291.9a.482.482,0,0,0-.482-.482h-6.938a.479.479,0,0,0-.335.136s0,0-.006.005l-.007.009a.478.478,0,0,0-.134.332v10.788a.475.475,0,0,0,.135.333.023.023,0,0,0,.007.008.018.018,0,0,0,.007.006.478.478,0,0,0,.333.135h6.938a.482.482,0,0,0,.482-.483V300.95a.482.482,0,0,0-.482-.483H448v-1.824h4.719a.481.481,0,0,0,.482-.482v-1.736a.482.482,0,0,0-.482-.483H448v-1.823h4.719Z" transform="translate(-402.317 -265.762)" fill="#00b900"/>
    </g>
  </g>
</svg>
