<svg xmlns="http://www.w3.org/2000/svg" xmlns:xlink="http://www.w3.org/1999/xlink" width="68" height="68" viewBox="0 0 68 68">
  <defs>
    <clipPath id="clip-Pinterest-Badge_white_68x68">
      <rect width="68" height="68"/>
    </clipPath>
  </defs>
  <g id="Pinterest-Badge_white_68x68" clip-path="url(#clip-Pinterest-Badge_white_68x68)">
    <rect id="矩形_2" data-name="矩形 2" width="68" height="68" fill="none"/>
    <g id="badgeRGB-white" transform="translate(121.5 243)">
      <g id="art" transform="translate(-121.5 -243)">
        <path id="路径_188" data-name="路径 188" d="M-87.5-243a34,34,0,0,0-34,34,34.018,34.018,0,0,0,21.61,31.671c-.3-2.69-.566-6.827.118-9.764.618-2.654,3.987-16.9,3.987-16.9a12.274,12.274,0,0,1-1.017-5.048c0-4.728,2.74-8.257,6.152-8.257,2.9,0,4.3,2.178,4.3,4.789,0,2.917-1.857,7.279-2.816,11.32a4.937,4.937,0,0,0,5.035,6.144c6.043,0,10.688-6.372,10.688-15.57,0-8.14-5.849-13.833-14.2-13.833-9.674,0-15.352,7.256-15.352,14.755a13.224,13.224,0,0,0,2.53,7.759,1.017,1.017,0,0,1,.236.975c-.258,1.074-.832,3.383-.944,3.856-.148.623-.493.754-1.137.455-4.247-1.977-6.9-8.185-6.9-13.172,0-10.726,7.792-20.575,22.465-20.575,11.795,0,20.961,8.4,20.961,19.637,0,11.718-7.388,21.148-17.643,21.148-3.445,0-6.684-1.79-7.793-3.9,0,0-1.7,6.492-2.118,8.082a38.008,38.008,0,0,1-4.226,8.913A33.991,33.991,0,0,0-87.5-175a34,34,0,0,0,34-34,34,34,0,0,0-34-34" transform="translate(121.5 243)" fill="#fff"/>
      </g>
    </g>
  </g>
</svg>
