<svg xmlns="http://www.w3.org/2000/svg" xmlns:xlink="http://www.w3.org/1999/xlink" width="68" height="68" viewBox="0 0 68 68">
  <defs>
    <clipPath id="clip-Pinterest-Badge_68x68">
      <rect width="68" height="68"/>
    </clipPath>
  </defs>
  <g id="Pinterest-Badge_68x68" clip-path="url(#clip-Pinterest-Badge_68x68)">
    <rect id="矩形_2" data-name="矩形 2" width="68" height="68" fill="none"/>
    <g id="badgeRGBart">
      <g id="组_64" data-name="组 64">
        <ellipse id="椭圆_6" data-name="椭圆 6" cx="34" cy="33.92" rx="34" ry="33.92" transform="translate(0 0.16)" fill="#fff"/>
        <g id="组_63" data-name="组 63">
          <path id="路径_187" data-name="路径 187" d="M34,0A33.919,33.919,0,0,0,21.6,65.523a32.581,32.581,0,0,1,.112-9.743c.616-2.652,3.974-16.862,3.974-16.862a12.332,12.332,0,0,1-1.007-5.025c0-4.718,2.742-8.236,6.156-8.236,2.91,0,4.309,2.178,4.309,4.774,0,2.9-1.847,7.259-2.826,11.307a4.937,4.937,0,0,0,5.037,6.142c6.044,0,10.69-6.365,10.69-15.522,0-8.124-5.849-13.791-14.216-13.791-9.682,0-15.363,7.231-15.363,14.713a13.22,13.22,0,0,0,2.519,7.733,1.008,1.008,0,0,1,.224.977c-.252,1.061-.84,3.378-.951,3.853-.14.614-.5.754-1.147.447C14.859,44.305,12.2,38.136,12.2,33.138c0-10.692,7.779-20.52,22.471-20.52,11.781,0,20.96,8.375,20.96,19.6,0,11.7-7.388,21.106-17.63,21.106-3.442,0-6.688-1.787-7.779-3.908,0,0-1.707,6.477-2.127,8.068a36.916,36.916,0,0,1-4.226,8.906A33.964,33.964,0,1,0,34,0Z" fill="#e60023"/>
        </g>
      </g>
    </g>
  </g>
</svg>
