<svg xmlns="http://www.w3.org/2000/svg" xmlns:xlink="http://www.w3.org/1999/xlink" width="68" height="68" viewBox="0 0 68 68">
  <defs>
    <clipPath id="clip-Twitter_Social_Icon_Rounded_Square_Color_68x68">
      <rect width="68" height="68"/>
    </clipPath>
  </defs>
  <g id="Twitter_Social_Icon_Rounded_Square_Color_68x68" clip-path="url(#clip-Twitter_Social_Icon_Rounded_Square_Color_68x68)">
    <path id="Dark_Blue" d="M59.5,68H8.5A8.5,8.5,0,0,1,0,59.5V8.5A8.5,8.5,0,0,1,8.5,0h51A8.5,8.5,0,0,1,68,8.5v51A8.5,8.5,0,0,1,59.5,68Z" fill="#1da1f2"/>
    <path id="Logo__x2014__FIXED" d="M90.732,142.491c18.779,0,29.054-16.968,29.054-31.658,0-.477,0-.955-.02-1.432a21.94,21.94,0,0,0,5.1-5.772,19.387,19.387,0,0,1-5.875,1.758,11.076,11.076,0,0,0,4.5-6.162A19.327,19.327,0,0,1,117,101.915a9.823,9.823,0,0,0-7.448-3.515c-5.636,0-10.216,4.991-10.216,11.131a13.357,13.357,0,0,0,.259,2.539,28.285,28.285,0,0,1-21.049-11.63,11.9,11.9,0,0,0-1.374,5.6,11.451,11.451,0,0,0,4.54,9.265,9.69,9.69,0,0,1-4.62-1.389v.152c0,5.381,3.525,9.895,8.185,10.914a9.451,9.451,0,0,1-4.6.2,10.364,10.364,0,0,0,9.539,7.725,19.442,19.442,0,0,1-12.685,4.774,18.055,18.055,0,0,1-2.43-.152,27.336,27.336,0,0,0,15.632,4.969" transform="translate(-65.976 -86.446)" fill="#fff"/>
  </g>
</svg>
