<svg xmlns="http://www.w3.org/2000/svg" xmlns:xlink="http://www.w3.org/1999/xlink" width="68" height="68" viewBox="0 0 68 68">
  <defs>
    <clipPath id="clip-icon_new-white_68x68">
      <rect width="68" height="68"/>
    </clipPath>
  </defs>
  <g id="icon_new-white_68x68" clip-path="url(#clip-icon_new-white_68x68)">
    <g id="组_45" data-name="组 45">
      <rect id="矩形_10" data-name="矩形 10" width="68" height="68" fill="none"/>
      <g id="icon_new-white" transform="translate(10 9)">
        <g id="组_51" data-name="组 51" transform="translate(0 0)">
          <path id="路径_177" data-name="路径 177" d="M41,4.754C39.793,3.636,34.9.083,24,.035c0,0-12.856-.775-19.123,4.973C1.385,8.5.158,13.6.028,19.933s-.3,18.193,11.138,21.409h.011l-.007,4.908s-.073,1.987,1.235,2.392c1.583.491,2.511-1.019,4.022-2.647.829-.894,1.975-2.207,2.838-3.21a44.072,44.072,0,0,0,14.518-1.069C35.363,41.206,44.3,40.061,45.751,28.2,47.251,15.973,45.025,8.24,41,4.754Zm1.325,22.568c-1.226,9.9-8.474,10.526-9.81,10.955a40.7,40.7,0,0,1-12.494,1.063s-4.95,5.972-6.5,7.524a.826.826,0,0,1-.715.293c-.266-.065-.339-.38-.336-.841,0-.658.042-8.156.042-8.156h0c-9.673-2.686-9.109-12.782-9-18.069s1.1-9.618,4.053-12.531c5.3-4.8,16.221-4.084,16.221-4.084,9.222.04,13.641,2.817,14.665,3.747,3.4,2.913,5.136,9.884,3.868,20.1Z" transform="translate(0 0)" fill="#fff"/>
        </g>
        <g id="组_52" data-name="组 52" transform="translate(24.8 15.847)">
          <path id="路径_178" data-name="路径 178" d="M40.171,27.124q-.18-3.627-3.685-3.81" transform="translate(-36.486 -23.315)" fill="none" stroke="#fff" stroke-linecap="round" stroke-linejoin="round" stroke-width="1.814"/>
        </g>
        <g id="组_53" data-name="组 53" transform="translate(23.864 12.539)">
          <path id="路径_179" data-name="路径 179" d="M42.893,26.626a7.783,7.783,0,0,0-2-5.646,8.3,8.3,0,0,0-5.781-2.533" transform="translate(-35.11 -18.447)" fill="none" stroke="#fff" stroke-linecap="round" stroke-linejoin="round" stroke-width="1.814"/>
        </g>
        <g id="组_54" data-name="组 54" transform="translate(22.777 9.34)">
          <path id="路径_180" data-name="路径 180" d="M45.619,26.385q-.045-5.863-3.5-9.236a11.966,11.966,0,0,0-8.6-3.408" transform="translate(-33.511 -13.742)" fill="none" stroke="#fff" stroke-linecap="round" stroke-linejoin="round" stroke-width="1.814"/>
        </g>
        <g id="组_55" data-name="组 55" transform="translate(10.176 10.112)">
          <path id="路径_181" data-name="路径 181" d="M29.717,32.679a1.692,1.692,0,0,0,1.333-.5l.91-1.145a2,2,0,0,1,2.535-.352q1.166.665,2.261,1.444c.688.506,2.1,1.682,2.1,1.682a1.74,1.74,0,0,1,.369,2.277c0,.005,0,.014,0,.018a9.494,9.494,0,0,1-1.893,2.332c-.009,0-.009.009-.017.013a3.731,3.731,0,0,1-1.923.93,1.272,1.272,0,0,1-.281.018,2.558,2.558,0,0,1-.818-.126l-.02-.03a27.947,27.947,0,0,1-5.286-2.446,31.478,31.478,0,0,1-4.441-2.933,23.283,23.283,0,0,1-2-1.771l-.067-.067-.067-.067-.067-.068-.067-.067a23.284,23.284,0,0,1-1.771-2,31.5,31.5,0,0,1-2.933-4.44,27.925,27.925,0,0,1-2.446-5.286l-.03-.02a2.56,2.56,0,0,1-.125-.818,1.233,1.233,0,0,1,.017-.281,3.8,3.8,0,0,1,.931-1.923c0-.008.009-.008.013-.017a9.474,9.474,0,0,1,2.332-1.893s.013,0,.018,0a1.742,1.742,0,0,1,2.276.366s1.178,1.414,1.682,2.1a26.817,26.817,0,0,1,1.444,2.263,2,2,0,0,1-.352,2.535l-1.145.91a1.681,1.681,0,0,0-.5,1.333S23.383,31.062,29.717,32.679Z" transform="translate(-14.971 -14.876)" fill="#fff"/>
        </g>
      </g>
    </g>
  </g>
</svg>
