<svg xmlns="http://www.w3.org/2000/svg" xmlns:xlink="http://www.w3.org/1999/xlink" width="68" height="68" viewBox="0 0 68 68">
  <defs>
    <clipPath id="clip-VK_Monochrome_Logo_transparent_68x68_">
      <rect width="68" height="68"/>
    </clipPath>
  </defs>
  <g id="VK_Monochrome_Logo_transparent_68x68_" data-name="VK_Monochrome_Logo_transparent_68x68 " clip-path="url(#clip-VK_Monochrome_Logo_transparent_68x68_)">
    <g id="组_27" data-name="组 27">
      <path id="排除_3" data-name="排除 3" d="M-47.562-1259H-68.438a52.82,52.82,0,0,1-11.719-1,14.483,14.483,0,0,1-7.206-3.634A14.483,14.483,0,0,1-91-1270.843a52.817,52.817,0,0,1-1-11.719v-20.875a52.818,52.818,0,0,1,1-11.719,14.484,14.484,0,0,1,3.634-7.206A14.484,14.484,0,0,1-80.157-1326a52.82,52.82,0,0,1,11.719-1h20.876a52.82,52.82,0,0,1,11.719,1,14.484,14.484,0,0,1,7.206,3.634A14.483,14.483,0,0,1-25-1315.156a52.817,52.817,0,0,1,1,11.719v20.875a52.816,52.816,0,0,1-1,11.719,14.483,14.483,0,0,1-3.634,7.206A14.482,14.482,0,0,1-35.844-1260,52.82,52.82,0,0,1-47.562-1259Zm-5.231-27.593c.695,0,1.963.333,4.943,3.215,1.007,1.008,1.769,1.856,2.381,2.538,1.452,1.618,2.115,2.357,3.426,2.357H-37.1a1.888,1.888,0,0,0,1.584-.58,1.707,1.707,0,0,0,.143-1.532c-.424-1.365-1.975-3.308-4.175-5.807-.583-.68-1.315-1.4-1.961-2.033a16.448,16.448,0,0,1-1.445-1.518c-.715-.953-.529-1.342,0-2.207,0-.01.141-.22.4-.6,1.411-2.081,5.7-8.406,6.223-10.822a1.446,1.446,0,0,0-.07-1.321,1.671,1.671,0,0,0-1.418-.5h-4.943a2.187,2.187,0,0,0-2.16,1.391,42.505,42.505,0,0,1-6.094,10.126c-1.205,1.205-1.7,1.536-2.3,1.536-.285,0-.768-.3-.768-1.439v-9.838c0-1.3-.417-1.823-1.439-1.823H-63.3a1.189,1.189,0,0,0-1.248,1.151,1.939,1.939,0,0,0,.592,1.2,5.624,5.624,0,0,1,1.375,3.647v7.295c0,1.591-.294,1.871-.912,1.871-.815,0-2.241-1.487-3.815-3.977a46.889,46.889,0,0,1-4.391-9.268c-.507-1.47-1.023-1.919-2.207-1.919H-78.9c-1.48,0-1.679.7-1.679,1.391,0,1.458,1.854,8.067,7.822,16.46,3.867,5.595,9.659,9.07,15.116,9.07,3.3,0,3.551-.8,3.551-1.92v-4.463C-54.089-1286.373-53.8-1286.593-52.793-1286.593Z" transform="translate(92 1327)" fill="#fff"/>
    </g>
  </g>
</svg>
