<svg xmlns="http://www.w3.org/2000/svg" xmlns:xlink="http://www.w3.org/1999/xlink" width="68" height="68" viewBox="0 0 68 68">
  <defs>
    <clipPath id="clip-vimeo_icon_white_68x68_">
      <rect width="68" height="68"/>
    </clipPath>
  </defs>
  <g id="vimeo_icon_white_68x68_" data-name="vimeo_icon_white_68x68 " clip-path="url(#clip-vimeo_icon_white_68x68_)">
    <g id="组_26" data-name="组 26">
      <g id="组_11" data-name="组 11">
        <rect id="矩形_10" data-name="矩形 10" width="68" height="68" fill="none"/>
        <path id="路径_39" data-name="路径 39" d="M63.413,32.332q-.328,7.174-10.022,19.645Q43.369,65,36.434,65q-4.3,0-7.269-7.931Q27.182,49.8,25.2,42.526q-2.206-7.928-4.735-7.932-.552,0-3.857,2.314L14.3,33.932q3.638-3.2,7.171-6.395,4.852-4.191,7.283-4.412,5.735-.552,7.061,7.841,1.432,9.055,1.987,11.26,1.656,7.514,3.641,7.511,1.541,0,4.634-4.875t3.308-7.418q.441-4.206-3.308-4.209a9.211,9.211,0,0,0-3.638.805q3.624-11.863,13.84-11.531,7.574.223,7.139,9.823Z" transform="translate(-5.296 -9.5)" fill="#fff"/>
      </g>
    </g>
  </g>
</svg>
