<svg xmlns="http://www.w3.org/2000/svg" xmlns:xlink="http://www.w3.org/1999/xlink" width="68" height="68" viewBox="0 0 68 68">
  <defs>
    <clipPath id="clip-WordPress-logotype-wmark_68x68">
      <rect width="68" height="68"/>
    </clipPath>
  </defs>
  <g id="WordPress-logotype-wmark_68x68" clip-path="url(#clip-WordPress-logotype-wmark_68x68)">
    <circle id="椭圆_5" data-name="椭圆 5" cx="34" cy="34" r="34" fill="#fff"/>
    <g id="组_9" data-name="组 9" transform="translate(-146.001 -1244.002)">
      <g id="组_8" data-name="组 8" transform="translate(146 1244)">
        <path id="路径_33" data-name="路径 33" d="M200.668,166.667a34,34,0,1,0,34,34,34,34,0,0,0-34-34m0,2.04a31.8,31.8,0,0,1,17.868,5.457,32.059,32.059,0,0,1,11.582,14.064,31.918,31.918,0,0,1-2.946,30.309,32.058,32.058,0,0,1-14.064,11.582,31.916,31.916,0,0,1-30.308-2.946,32.058,32.058,0,0,1-11.582-14.064,31.918,31.918,0,0,1,2.946-30.309,32.059,32.059,0,0,1,14.064-11.582,31.759,31.759,0,0,1,12.44-2.511" transform="translate(-166.667 -166.667)" fill="#32373c"/>
        <path id="路径_34" data-name="路径 34" d="M274.9,236.817a21.553,21.553,0,0,1,.189,2.885,26.484,26.484,0,0,1-2.134,10.048l-8.568,24.775A28.06,28.06,0,0,0,274.9,236.817M250.769,252.73l-8.419,24.459a28.066,28.066,0,0,0,17.243-.448,2.578,2.578,0,0,1-.2-.387Zm18.446-3.869a14.776,14.776,0,0,0-2.313-7.737c-1.422-2.312-2.756-4.268-2.756-6.58a4.858,4.858,0,0,1,4.711-4.979c.125,0,.242.015.363.023a28.048,28.048,0,0,0-42.385,5.279c.659.021,1.279.034,1.806.034,2.934,0,7.477-.357,7.477-.357a1.16,1.16,0,0,1,.179,2.312s-1.52.178-3.211.267L243.3,267.512l6.14-18.413-4.371-11.976c-1.512-.088-2.942-.266-2.942-.266a1.16,1.16,0,0,1,.178-2.312s4.632.357,7.388.357c2.934,0,7.478-.357,7.478-.357a1.16,1.16,0,0,1,.179,2.312s-1.522.178-3.211.266l10.139,30.157,2.894-9.171c1.286-4.008,2.04-6.848,2.04-9.248m-46.994,1.415a28.057,28.057,0,0,0,15.812,25.249l-13.383-36.666a27.947,27.947,0,0,0-2.429,11.417" transform="translate(-216.276 -216.276)" fill="#32373c"/>
      </g>
    </g>
  </g>
</svg>
