<svg xmlns="http://www.w3.org/2000/svg" xmlns:xlink="http://www.w3.org/1999/xlink" width="68" height="68" viewBox="0 0 68 68">
  <defs>
    <clipPath id="clip-WordPress-logotype-wmark-white_68x68">
      <rect width="68" height="68"/>
    </clipPath>
  </defs>
  <g id="WordPress-logotype-wmark-white_68x68" clip-path="url(#clip-WordPress-logotype-wmark-white_68x68)">
    <g id="组_9" data-name="组 9" transform="translate(-146 -1244)">
      <g id="组_8" data-name="组 8" transform="translate(146 1244)">
        <path id="路径_33" data-name="路径 33" d="M200.667,166.667a34,34,0,1,0,34,34,34,34,0,0,0-34-34m0,2.04a31.8,31.8,0,0,1,17.868,5.457,32.059,32.059,0,0,1,11.582,14.064,31.917,31.917,0,0,1-2.946,30.308,32.058,32.058,0,0,1-14.063,11.582,31.916,31.916,0,0,1-30.307-2.946,32.057,32.057,0,0,1-11.581-14.064,31.918,31.918,0,0,1,2.946-30.308,32.058,32.058,0,0,1,14.063-11.582,31.758,31.758,0,0,1,12.44-2.511" transform="translate(-166.667 -166.667)" fill="#fff"/>
        <path id="路径_34" data-name="路径 34" d="M278.178,237.727a22.89,22.89,0,0,1,.2,3.064,28.135,28.135,0,0,1-2.267,10.675l-9.1,26.319a29.808,29.808,0,0,0,11.169-40.058m-25.629,16.9-8.943,25.984a29.816,29.816,0,0,0,18.317-.475,2.731,2.731,0,0,1-.214-.411Zm19.6-4.11a15.7,15.7,0,0,0-2.457-8.219c-1.511-2.456-2.928-4.534-2.928-6.99a5.16,5.16,0,0,1,5-5.289c.132,0,.257.016.386.024a29.8,29.8,0,0,0-45.027,5.608c.7.022,1.359.036,1.918.036,3.117,0,7.943-.379,7.943-.379a1.232,1.232,0,0,1,.191,2.456s-1.615.189-3.411.283l10.852,32.283,6.523-19.561L246.5,238.051c-1.606-.094-3.126-.283-3.126-.283a1.232,1.232,0,0,1,.189-2.456s4.921.379,7.849.379c3.117,0,7.944-.379,7.944-.379a1.232,1.232,0,0,1,.19,2.456s-1.617.189-3.411.283l10.77,32.037,3.075-9.742c1.366-4.258,2.167-7.274,2.167-9.824m-49.922,1.5a29.806,29.806,0,0,0,16.8,26.822L224.8,239.9a29.688,29.688,0,0,0-2.581,12.129" transform="translate(-218.025 -218.025)" fill="#fff"/>
      </g>
    </g>
  </g>
</svg>
